<svg xmlns="http://www.w3.org/2000/svg" viewBox="0 0 100 100" width="100" height="100">
  <!-- Open Book -->
  <defs>
    <linearGradient id="grad4" x1="0%" y1="0%" x2="100%" y2="0%">
      <stop offset="0%" style="stop-color:#10b981;stop-opacity:1" />
      <stop offset="50%" style="stop-color:#059669;stop-opacity:1" />
      <stop offset="100%" style="stop-color:#10b981;stop-opacity:1" />
    </linearGradient>
  </defs>

  <!-- Left page -->
  <path d="M 20 30 Q 20 25 25 25 L 48 25 L 48 75 L 25 75 Q 20 75 20 70 Z" fill="#ffffff" stroke="#059669" stroke-width="2"/>

  <!-- Right page -->
  <path d="M 52 25 L 75 25 Q 80 25 80 30 L 80 70 Q 80 75 75 75 L 52 75 Z" fill="#ffffff" stroke="#059669" stroke-width="2"/>

  <!-- Center binding -->
  <rect x="48" y="25" width="4" height="50" fill="url(#grad4)"/>

  <!-- Left page content -->
  <line x1="28" y1="35" x2="42" y2="35" stroke="#10b981" stroke-width="1" opacity="0.5"/>
  <line x1="28" y1="42" x2="42" y2="42" stroke="#10b981" stroke-width="1" opacity="0.5"/>
  <line x1="28" y1="49" x2="40" y2="49" stroke="#10b981" stroke-width="1" opacity="0.5"/>

  <!-- Right page content -->
  <line x1="58" y1="35" x2="72" y2="35" stroke="#10b981" stroke-width="1" opacity="0.5"/>
  <line x1="58" y1="42" x2="72" y2="42" stroke="#10b981" stroke-width="1" opacity="0.5"/>
  <line x1="58" y1="49" x2="70" y2="49" stroke="#10b981" stroke-width="1" opacity="0.5"/>

  <!-- Robot icon in center -->
  <circle cx="50" cy="60" r="6" fill="#10b981"/>
  <circle cx="48" cy="59" r="1" fill="#ffffff"/>
  <circle cx="52" cy="59" r="1" fill="#ffffff"/>
  <path d="M 47 62 Q 50 64 53 62" stroke="#ffffff" stroke-width="1" fill="none"/>
</svg>